<svg width="22" height="20" viewBox="0 0 22 20" fill="none" xmlns="http://www.w3.org/2000/svg">
<path d="M16.4126 13.3998C15.7454 13.3998 15.1484 13.6498 14.692 14.0415L8.4328 10.5832C8.47669 10.3915 8.5118 10.1998 8.5118 9.99984C8.5118 9.79984 8.47669 9.60817 8.4328 9.4165L14.6217 5.9915C15.0958 6.40817 15.7191 6.6665 16.4126 6.6665C17.8698 6.6665 19.0462 5.54984 19.0462 4.1665C19.0462 2.78317 17.8698 1.6665 16.4126 1.6665C14.9553 1.6665 13.779 2.78317 13.779 4.1665C13.779 4.3665 13.8141 4.55817 13.858 4.74984L7.66906 8.17484C7.19501 7.75817 6.57173 7.49984 5.87822 7.49984C4.42096 7.49984 3.24463 8.6165 3.24463 9.99984C3.24463 11.3832 4.42096 12.4998 5.87822 12.4998C6.57173 12.4998 7.19501 12.2415 7.66906 11.8248L13.9194 15.2915C13.8755 15.4665 13.8492 15.6498 13.8492 15.8332C13.8492 17.1748 14.9992 18.2665 16.4126 18.2665C17.8259 18.2665 18.9759 17.1748 18.9759 15.8332C18.9759 14.4915 17.8259 13.3998 16.4126 13.3998Z" fill="#A1A1A1"/>
</svg>
