<svg width="20" height="21" viewBox="0 0 20 21" fill="none" xmlns="http://www.w3.org/2000/svg">
<path d="M16.2037 7.23825C16.2141 7.40271 16.2141 7.56622 16.2141 7.72973C16.2141 12.7338 12.9494 18.5 6.98292 18.5C5.14473 18.5 3.43704 17.8788 2 16.8C2.26099 16.8348 2.51231 16.847 2.78377 16.847C4.30055 16.847 5.69651 16.2493 6.81215 15.2297C5.38558 15.195 4.1902 14.1049 3.77777 12.6051C3.97835 12.6398 4.17973 12.6633 4.39077 12.6633C4.68156 12.6633 4.97396 12.6163 5.24542 12.5346C3.75764 12.1831 2.64361 10.6598 2.64361 8.81982V8.77284C3.07617 9.05382 3.57801 9.22954 4.10965 9.25304C3.23566 8.57455 2.66294 7.41398 2.66294 6.10118C2.66294 5.39826 2.82324 4.7536 3.10436 4.19164C4.7017 6.48741 7.10294 7.98816 9.79498 8.15261C9.74504 7.87069 9.71443 7.57844 9.71443 7.28524C9.71443 5.19904 11.1611 3.5 12.959 3.5C13.8934 3.5 14.7368 3.95671 15.3297 4.69534C16.0627 4.53089 16.7651 4.2142 17.3886 3.78098C17.1477 4.65963 16.6346 5.39826 15.962 5.86718C16.6153 5.78449 17.2484 5.57399 17.83 5.28079C17.3886 6.0307 16.8368 6.69885 16.2037 7.23825Z" fill="#A2A2A2"/>
</svg>
