<svg width="22" height="20" viewBox="0 0 22 20" fill="none" xmlns="http://www.w3.org/2000/svg">
<path d="M19.0362 9.37197L19.0355 9.37049L16.7077 4.26165C16.4381 3.84613 15.9458 3.5835 15.418 3.5835H8.29849C7.29098 3.5835 6.49429 4.35935 6.49429 5.27516V11.8085C6.49429 12.1794 6.6489 12.5395 6.93435 12.8105L12.3875 17.987L12.6191 17.7624L12.6191 17.7624L12.621 17.7605C12.9163 17.4803 13.1549 17.1605 13.345 16.8077C13.4046 16.6939 13.4222 16.5563 13.3928 16.4334L13.3927 16.4334L13.3912 16.4262L12.5835 12.5512L12.5208 12.2502H12.8283H17.6565C18.4965 12.2502 19.1622 11.6 19.1622 10.8335V9.9335C19.1622 9.73839 19.1183 9.54913 19.0362 9.37197ZM3.61071 3.5835H2.10498V12.2502H3.61071C3.96788 12.2502 4.23857 11.975 4.23857 11.6668V4.16683C4.23857 3.85867 3.96788 3.5835 3.61071 3.5835Z" stroke="#353535" stroke-width="0.5"/>
</svg>
