<svg width="18" height="16" viewBox="0 0 18 16" fill="none" xmlns="http://www.w3.org/2000/svg">
<path d="M16.1765 4.23825C16.1878 4.40271 16.1878 4.56622 16.1878 4.72973C16.1878 9.73381 12.6574 15.5 6.20535 15.5C4.21756 15.5 2.37089 14.8788 0.816895 13.8C1.09912 13.8348 1.3709 13.847 1.66445 13.847C3.30468 13.847 4.81425 13.2493 6.02068 12.2297C4.47801 12.195 3.18534 11.1049 2.73935 9.60506C2.95625 9.63983 3.17402 9.66333 3.40224 9.66333C3.7167 9.66333 4.03289 9.61634 4.32645 9.53458C2.71757 9.18312 1.51288 7.65982 1.51288 5.81982V5.77284C1.98065 6.05382 2.52333 6.22954 3.09823 6.25304C2.15312 5.57455 1.53379 4.41398 1.53379 3.10118C1.53379 2.39826 1.70713 1.7536 2.01114 1.19164C3.73847 3.48741 6.33514 4.98816 9.24626 5.15261C9.19226 4.87069 9.15916 4.57844 9.15916 4.28524C9.15916 2.19904 10.7236 0.5 12.6678 0.5C13.6783 0.5 14.5903 0.95671 15.2314 1.69534C16.0241 1.53089 16.7837 1.2142 17.4579 0.78098C17.1974 1.65963 16.6425 2.39826 15.9152 2.86718C16.6216 2.78449 17.3063 2.57399 17.9352 2.28079C17.4579 3.0307 16.8612 3.69885 16.1765 4.23825Z" fill="#00CDFF"/>
</svg>
