<svg width="15" height="14" viewBox="0 0 15 14" fill="none" xmlns="http://www.w3.org/2000/svg">
<path d="M13.4061 7.41248L13.4054 7.41393L11.8607 10.9853C11.6947 11.2514 11.3961 11.4165 11.0799 11.4165H6.34905C5.73392 11.4165 5.23405 10.9152 5.23405 10.3073V5.734C5.23405 5.49123 5.33015 5.25729 5.50499 5.08245L9.06547 1.52197L9.15705 1.61554L9.15704 1.61555L9.15894 1.61745C9.34868 1.80719 9.50269 2.02426 9.62587 2.265C9.65824 2.33028 9.66809 2.41083 9.65193 2.48193L9.65184 2.48191L9.65047 2.48882L9.1138 5.20131L9.05474 5.49984H9.35905H12.5674C13.071 5.49984 13.4841 5.91291 13.4841 6.4165V7.0465C13.4841 7.17366 13.4569 7.29697 13.4061 7.41248ZM3.23405 11.4165H2.31738V5.49984H3.23405C3.41681 5.49984 3.56738 5.65041 3.56738 5.83317V11.0832C3.56738 11.2659 3.41681 11.4165 3.23405 11.4165Z" stroke="#353535" stroke-width="0.5"/>
</svg>
