<svg width="21" height="20" viewBox="0 0 21 20" fill="none" xmlns="http://www.w3.org/2000/svg">
<path d="M10.499 6.14749C8.37065 6.14749 6.64648 7.87249 6.64648 9.99999C6.64648 12.1283 8.37065 13.8533 10.499 13.8533C12.6257 13.8533 14.3515 12.1283 14.3515 9.99999C14.3515 7.87249 12.6257 6.14749 10.499 6.14749ZM10.499 12.5033C9.11648 12.5033 7.99565 11.3825 7.99565 10.0008C7.99565 8.61832 9.11648 7.49832 10.499 7.49832C11.8815 7.49832 13.0007 8.61832 13.0007 10.0008C13.0007 11.3825 11.8815 12.5033 10.499 12.5033Z" fill="#A2A2A2"/>
<path d="M14.5048 6.90418C15.0009 6.90418 15.4031 6.50198 15.4031 6.00585C15.4031 5.50971 15.0009 5.10751 14.5048 5.10751C14.0086 5.10751 13.6064 5.50971 13.6064 6.00585C13.6064 6.50198 14.0086 6.90418 14.5048 6.90418Z" fill="#A2A2A2"/>
<path d="M17.6106 5.09248C17.2198 4.08498 16.424 3.28832 15.4165 2.89915C14.834 2.67998 14.2181 2.56248 13.5948 2.54915C12.7923 2.51415 12.5381 2.50415 10.5031 2.50415C8.46813 2.50415 8.2073 2.50415 7.41146 2.54915C6.7898 2.56165 6.17396 2.67915 5.59146 2.89915C4.58313 3.28832 3.7873 4.08498 3.3973 5.09248C3.17813 5.67582 3.06063 6.29082 3.04813 6.91415C3.0123 7.71582 3.00146 7.96998 3.00146 10.0058C3.00146 12.0408 3.00146 12.3 3.04813 13.0975C3.06063 13.7208 3.17813 14.3358 3.3973 14.92C3.78813 15.9266 4.58396 16.7233 5.5923 17.1133C6.1723 17.34 6.78813 17.4683 7.41313 17.4883C8.21563 17.5233 8.4698 17.5341 10.5048 17.5341C12.5398 17.5341 12.8006 17.5341 13.5965 17.4883C14.219 17.4758 14.8348 17.3575 15.4181 17.1391C16.4256 16.7483 17.2215 15.9525 17.6123 14.945C17.8315 14.3616 17.949 13.7466 17.9615 13.1233C17.9973 12.3216 18.0081 12.0675 18.0081 10.0316C18.0081 7.99582 18.0081 7.73748 17.9615 6.93998C17.9506 6.30832 17.834 5.68248 17.6106 5.09248ZM16.5956 13.0358C16.5898 13.5158 16.5031 13.9916 16.3365 14.4425C16.0823 15.0983 15.5648 15.6166 14.9098 15.8683C14.464 16.0341 13.994 16.1208 13.5181 16.1275C12.7265 16.1641 12.5031 16.1733 10.4731 16.1733C8.44147 16.1733 8.23396 16.1733 7.4273 16.1275C6.95313 16.1216 6.48146 16.0341 6.03646 15.8683C5.37896 15.6175 4.85813 15.0991 4.60396 14.4425C4.44063 13.9975 4.3523 13.5266 4.3448 13.0516C4.30896 12.26 4.30063 12.0366 4.30063 10.0066C4.30063 7.97582 4.30063 7.76832 4.3448 6.96082C4.35063 6.48082 4.4373 6.00582 4.60396 5.55498C4.85813 4.89748 5.37896 4.37998 6.03646 4.12832C6.48146 3.96332 6.95313 3.87582 7.4273 3.86915C8.2198 3.83332 8.4423 3.82332 10.4731 3.82332C12.504 3.82332 12.7123 3.82332 13.5181 3.86915C13.994 3.87498 14.464 3.96248 14.9098 4.12832C15.5648 4.38082 16.0823 4.89915 16.3365 5.55498C16.4998 5.99998 16.5881 6.47082 16.5956 6.94582C16.6315 7.73832 16.6406 7.96082 16.6406 9.99165C16.6406 12.0216 16.6406 12.24 16.6048 13.0366H16.5956V13.0358Z" fill="#A2A2A2"/>
</svg>
