<svg width="22" height="20" viewBox="0 0 22 20" fill="none" xmlns="http://www.w3.org/2000/svg">
<path d="M2.68701 16.6665H4.44274C4.92556 16.6665 5.3206 16.2915 5.3206 15.8332V8.33317C5.3206 7.87484 4.92556 7.49984 4.44274 7.49984H2.68701V16.6665ZM20.095 10.7332C20.1916 10.5248 20.2443 10.2998 20.2443 10.0665V9.1665C20.2443 8.24984 19.4542 7.49984 18.4885 7.49984H13.6603L14.4679 3.62484C14.5118 3.4415 14.4855 3.2415 14.3977 3.07484C14.1958 2.69984 13.9412 2.35817 13.6252 2.05817L13.2214 1.6665L7.59426 7.00817C7.26068 7.32484 7.07632 7.74984 7.07632 8.1915V14.7248C7.07632 15.7915 7.99808 16.6665 9.13052 16.6665H16.25C16.8645 16.6665 17.4439 16.3582 17.7599 15.8582L20.095 10.7332Z" fill="#4F75FC"/>
</svg>
